<mxfile host="app.diagrams.net" modified="2023-07-07T13:46:34.404Z" agent="Mozilla/5.0 (Macintosh; Intel Mac OS X 10_15_7) AppleWebKit/537.36 (KHTML, like Gecko) Chrome/112.0.0.0 Safari/537.36 Edg/112.0.1722.48" version="21.6.1" etag="_LPTj1imlk5PP37aqIUZ" type="github">
  <diagram name="Page-1" id="8v-OEmR7g4b5dNkWfbjO">
    <mxGraphModel>
      <root>
        <mxCell id="0" />
        <mxCell id="1" parent="0" />
      </root>
    </mxGraphModel>
  </diagram>
</mxfile>
